name C:\Users\u0150099\Documents\master_thesis\3dpredictsim\Results\debug\Fal_s1_mtjc2_sc_cspx10_oy2_ATx70_MTc2_MTPm_k1_d01_MTJm_nl_MG_exp5_table_d01_PF_Gefen2002_ls146_FDB2_lTs125_Fpsl10_ig21_wAk5e+04_wa2e+03_wpMnD1e+03.mot
datacolumns 130
datarows 4
range 1.03322528 1.06422204
endheader
time	pelvis_tilt	pelvis_list	pelvis_rotation	pelvis_tx	pelvis_ty	pelvis_tz	hip_flexion_l	hip_adduction_l	hip_rotation_l	hip_flexion_r	hip_adduction_r	hip_rotation_r	knee_angle_l	knee_angle_r	ankle_angle_l	ankle_angle_r	subtalar_angle_l	subtalar_angle_r	mtj_angle_l	mtj_angle_r	mtp_angle_l	mtp_angle_r	lumbar_extension	lumbar_bending	lumbar_rotation	arm_flex_l	arm_add_l	arm_rot_l	arm_flex_r	arm_add_r	arm_rot_r	elbow_flex_l	elbow_flex_r	pro_sup_l	pro_sup_r	glut_med1_l/activation	glut_med2_l/activation	glut_med3_l/activation	glut_min1_l/activation	glut_min2_l/activation	glut_min3_l/activation	semimem_l/activation	semiten_l/activation	bifemlh_l/activation	bifemsh_l/activation	sar_l/activation	add_long_l/activation	add_brev_l/activation	add_mag1_l/activation	add_mag2_l/activation	add_mag3_l/activation	tfl_l/activation	pect_l/activation	grac_l/activation	glut_max1_l/activation	glut_max2_l/activation	glut_max3_l/activation	iliacus_l/activation	psoas_l/activation	quad_fem_l/activation	gem_l/activation	peri_l/activation	rect_fem_l/activation	vas_med_l/activation	vas_int_l/activation	vas_lat_l/activation	med_gas_l/activation	lat_gas_l/activation	soleus_l/activation	tib_post_l/activation	flex_dig_l/activation	flex_hal_l/activation	tib_ant_l/activation	per_brev_l/activation	per_long_l/activation	per_tert_l/activation	ext_dig_l/activation	ext_hal_l/activation	FDB_l/activation	ercspn_l/activation	intobl_l/activation	extobl_l/activation	glut_med1_r/activation	glut_med2_r/activation	glut_med3_r/activation	glut_min1_r/activation	glut_min2_r/activation	glut_min3_r/activation	semimem_r/activation	semiten_r/activation	bifemlh_r/activation	bifemsh_r/activation	sar_r/activation	add_long_r/activation	add_brev_r/activation	add_mag1_r/activation	add_mag2_r/activation	add_mag3_r/activation	tfl_r/activation	pect_r/activation	grac_r/activation	glut_max1_r/activation	glut_max2_r/activation	glut_max3_r/activation	iliacus_r/activation	psoas_r/activation	quad_fem_r/activation	gem_r/activation	peri_r/activation	rect_fem_r/activation	vas_med_r/activation	vas_int_r/activation	vas_lat_r/activation	med_gas_r/activation	lat_gas_r/activation	soleus_r/activation	tib_post_r/activation	flex_dig_r/activation	flex_hal_r/activation	tib_ant_r/activation	per_brev_r/activation	per_long_r/activation	per_tert_r/activation	ext_dig_r/activation	ext_hal_r/activation	FDB_r/activation	ercspn_r/activation	intobl_r/activation	extobl_r/activation	
          1.03322528	         -2.92501052	         -1.52108124	          2.17903657	          1.37418963	          0.90835507	         -0.00273038	        -11.40917649	          1.37020029	          7.19669831	         31.11387326	          2.22020556	         -3.34700124	        -17.78311022	        -15.76430000	         10.74295723	         12.78104959	         15.79119255	         10.87414335	          3.03214223	         -1.13635819	          9.18254796	          4.18447794	         -4.21271245	          1.35529152	         -2.22036805	          3.97944655	        -13.92479689	         19.38335916	         -5.71115507	        -13.48564214	          2.68207888	         37.73784550	         31.57439878	         86.51662706	         86.51662706	          0.17928504	          0.09406562	          0.06870308	          0.37208444	          0.23555659	          0.12971352	          0.05000033	          0.05000003	          0.05000004	          0.05000006	          0.12706801	          0.05000003	          0.05000003	          0.05000008	          0.05000027	          0.05000015	          0.63753353	          0.05000015	          0.05000009	          0.05422692	          0.05000586	          0.05000032	          0.42523016	          0.66373401	          0.05000011	          0.05014164	          0.05861020	          0.50182688	          0.17691424	          0.19071033	          0.16525327	          0.37044216	          0.50280078	          0.28814290	          0.80728359	          0.49320257	          0.68132270	          0.05000000	          0.05985916	          0.22815484	          0.05000001	          0.05000000	          0.12768320	          0.64392797	          0.05000000	          0.05000000	          0.05000001	          0.05000007	          0.05860951	          0.05000091	          0.05860938	          0.05860594	          0.05000165	          0.30866664	          0.08053403	          0.34483644	          0.06902627	          0.05185241	          0.08043843	          0.12065024	          0.13874878	          0.12933215	          0.15830177	          0.05000036	          0.05000219	          0.08053392	          0.05997515	          0.09274533	          0.11728689	          0.05000007	          0.05000025	          0.10551452	          0.05000314	          0.05000056	          0.05000006	          0.05000020	          0.05000019	          0.05000012	          0.06373533	          0.05946045	          0.05031729	          0.18313328	          0.06072290	          0.05000383	          0.31281636	          0.05055481	          0.05000026	          0.20796885	          0.55268598	          0.22006322	          0.19891682	          0.06676651	          0.09690779	          0.12209698	
          1.04355754	         -2.92809015	         -1.69352823	          2.44306265	          1.39007113	          0.90715630	         -0.00233666	        -12.10071522	          0.98275733	          7.33435086	         30.88530644	          2.54881176	         -3.41609838	        -18.14063440	        -15.56493788	          9.53492923	         12.42172673	         16.16781274	         11.10759618	          2.86715510	         -0.71780975	         11.21424251	          3.52596409	         -4.05017112	          1.60342611	         -2.31580323	          3.61443678	        -13.90139263	         19.35219167	         -6.25437723	        -13.45447685	          2.02717363	         39.27915143	         30.75193979	         86.51662706	         86.51662706	          0.20266471	          0.08024681	          0.05861018	          0.31742306	          0.20095187	          0.11065780	          0.05860743	          0.05000281	          0.05000017	          0.05861046	          0.10840110	          0.05000018	          0.05000022	          0.05000033	          0.05000091	          0.05000038	          0.56205731	          0.05000154	          0.05861000	          0.05000400	          0.05000148	          0.05000069	          0.36276121	          0.72145819	          0.05000023	          0.05000035	          0.05000004	          0.48421640	          0.15092446	          0.16269383	          0.14097656	          0.36045185	          0.50718573	          0.26459331	          0.76807684	          0.44854326	          0.66595806	          0.05000000	          0.05861019	          0.19463746	          0.05000025	          0.05000001	          0.10892573	          0.54933088	          0.05000000	          0.05000000	          0.05000000	          0.13477642	          0.05000005	          0.05861015	          0.05000003	          0.05000005	          0.05000014	          0.30454780	          0.06870313	          0.33427748	          0.06870310	          0.05196981	          0.09452706	          0.16475328	          0.16383033	          0.13048637	          0.18499890	          0.05000034	          0.05807623	          0.06870323	          0.05861092	          0.11658407	          0.13947107	          0.05000012	          0.05000020	          0.23687261	          0.05118848	          0.05000028	          0.05000001	          0.05000006	          0.05000003	          0.05000004	          0.05861021	          0.05844920	          0.05000011	          0.18818551	          0.06789559	          0.05000033	          0.33667071	          0.05000019	          0.06449508	          0.21009120	          0.57767849	          0.24310340	          0.18842878	          0.05872511	          0.08267143	          0.11065951	
          1.05388979	         -2.92926206	         -1.86152598	          2.69560279	          1.40619866	          0.90596973	         -0.00192282	        -12.68708487	          0.59126210	          7.46335623	         30.64960979	          2.87525889	         -3.43522196	        -18.66905531	        -16.00222201	          8.23040482	         11.68573594	         16.58441016	         11.34073633	          2.54076841	         -0.10546207	         13.48247548	          2.89050133	         -3.87689722	          1.85074085	         -2.40441372	          3.18488661	        -13.86274907	         19.22868578	         -6.79537661	        -13.45152185	          1.59638532	         40.81423131	         29.89028143	         86.51662706	         86.51662706	          0.17289203	          0.06845806	          0.05000001	          0.27079175	          0.17143080	          0.09440149	          0.05000038	          0.05000004	          0.05000005	          0.05000023	          0.09247638	          0.07606955	          0.05000019	          0.05000014	          0.05000049	          0.05000101	          0.53945441	          0.05000119	          0.05000005	          0.05000022	          0.05000013	          0.05000010	          0.30946931	          0.68101782	          0.05000000	          0.05000006	          0.05000204	          0.41308213	          0.20237763	          0.21181403	          0.18643041	          0.30749920	          0.43267695	          0.22572288	          0.72733685	          0.42007818	          0.59209495	          0.05000000	          0.05000004	          0.17553664	          0.05000000	          0.05000000	          0.09292386	          0.50848057	          0.05000000	          0.06870311	          0.05000001	          0.11497698	          0.05861019	          0.05000005	          0.05861029	          0.05861024	          0.05132898	          0.26028222	          0.05861021	          0.28934256	          0.05861020	          0.05000014	          0.11878742	          0.14055079	          0.13976334	          0.17300133	          0.19959679	          0.05000030	          0.05000227	          0.05861034	          0.05000085	          0.11428473	          0.16460184	          0.05866075	          0.06756960	          0.52974420	          0.15063041	          0.07257929	          0.08053408	          0.05000007	          0.12555715	          0.05000007	          0.05000002	          0.05000001	          0.05000000	          0.21358109	          0.08053347	          0.08053206	          0.34946310	          0.13270300	          0.05861053	          0.23279648	          0.62114199	          0.20739002	          0.16074740	          0.05009802	          0.07052648	          0.09440294	
          1.06422204	         -2.92917741	         -2.02707200	          2.93653291	          1.42257255	          0.90481143	         -0.00150115	        -13.19811725	          0.18725656	          7.56075025	         30.36376139	          3.15480162	         -3.39691253	        -19.29852106	        -16.97186265	          6.90128369	         10.62255546	         16.99796690	         11.56888041	          1.88496451	          0.50454457	         15.98718928	          2.23008678	         -3.69164538	          2.09542369	         -2.48293888	          2.69440092	        -13.81994419	         19.06531925	         -7.33531588	        -13.47352806	          1.36933686	         42.34622415	         28.99219005	         86.51662706	         86.51662706	          0.14749318	          0.05840128	          0.05861017	          0.23101077	          0.14624656	          0.08053333	          0.05000078	          0.05000021	          0.05000036	          0.05000004	          0.07889131	          0.17663524	          0.05861410	          0.05861024	          0.05860995	          0.05583459	          0.46084541	          0.08053532	          0.05861014	          0.05795209	          0.05860803	          0.05861003	          0.26400632	          0.63527919	          0.05861020	          0.05861013	          0.05000005	          0.35239778	          0.18741457	          0.19626113	          0.17823629	          0.27214777	          0.38217727	          0.19256277	          0.62048655	          0.35836608	          0.50511249	          0.05000000	          0.05000008	          0.14974920	          0.05000000	          0.05000000	          0.07927277	          0.43378156	          0.05319095	          0.05861021	          0.05861019	          0.18114624	          0.05000002	          0.14596654	          0.05000008	          0.05000005	          0.05000004	          0.22538961	          0.05000001	          0.24774808	          0.05000000	          0.06870312	          0.10133696	          0.22356070	          0.20774245	          0.14758669	          0.24366992	          0.05000035	          0.06870834	          0.05000013	          0.05000005	          0.17682647	          0.21967000	          0.06870309	          0.06870290	          0.50503586	          0.12850191	          0.07547562	          0.06870313	          0.11184232	          0.14081060	          0.09445156	          0.06710198	          0.06870316	          0.06557384	          0.18223314	          0.06870313	          0.06870310	          0.42115979	          0.16142912	          0.05000028	          0.37529879	          0.62454292	          0.17692312	          0.13713259	          0.05000000	          0.06016570	          0.08053455	
